<svg id="SvgjsSvg1006" width="776.0124969482422" height="120" xmlns="http://www.w3.org/2000/svg" version="1.1" xmlns:xlink="http://www.w3.org/1999/xlink" xmlns:svgjs="http://svgjs.com/svgjs"><defs id="SvgjsDefs1007"><marker id="SvgjsMarker1016" markerWidth="16" markerHeight="12" refX="16" refY="6" viewBox="0 0 16 12" orient="auto" markerUnits="userSpaceOnUse" stroke-dasharray="0,0"><path id="SvgjsPath1017" d="M0,2 L14,6 L0,11 L0,2" fill="#323232" stroke="#323232" stroke-width="2"></path></marker><marker id="SvgjsMarker1038" markerWidth="16" markerHeight="12" refX="16" refY="6" viewBox="0 0 16 12" orient="auto" markerUnits="userSpaceOnUse" stroke-dasharray="0,0"><path id="SvgjsPath1039" d="M0,2 L14,6 L0,11 L0,2" fill="#323232" stroke="#323232" stroke-width="2"></path></marker><marker id="SvgjsMarker1046" markerWidth="16" markerHeight="12" refX="16" refY="6" viewBox="0 0 16 12" orient="auto" markerUnits="userSpaceOnUse" stroke-dasharray="0,0"><path id="SvgjsPath1047" d="M0,2 L14,6 L0,11 L0,2" fill="#323232" stroke="#323232" stroke-width="2"></path></marker><marker id="SvgjsMarker1050" markerWidth="16" markerHeight="12" refX="16" refY="6" viewBox="0 0 16 12" orient="auto" markerUnits="userSpaceOnUse" stroke-dasharray="0,0"><path id="SvgjsPath1051" d="M0,2 L14,6 L0,11 L0,2" fill="#323232" stroke="#323232" stroke-width="2"></path></marker></defs><g id="SvgjsG1008" transform="translate(25.012496948242188,25.00000762939453)"><path id="SvgjsPath1009" d="M 0 0L 132 0L 132 70L 0 70Z" stroke="rgba(50,50,50,1)" stroke-width="2" fill-opacity="1" fill="#ffffff"></path><g id="SvgjsG1010"><text id="SvgjsText1011" font-family="微软雅黑" text-anchor="middle" font-size="13px" width="112px" fill="#323232" font-weight="400" align="middle" lineHeight="125%" anchor="middle" family="微软雅黑" size="13px" weight="400" font-style="" opacity="1" y="25.375" transform="rotate(0)"><tspan id="SvgjsTspan1012" dy="16" x="66"><tspan id="SvgjsTspan1013" style="text-decoration:;">发布者 Publisher</tspan></tspan></text></g></g><g id="SvgjsG1014"><path id="SvgjsPath1015" d="M157.0124969482422 60.00000762939453L228.0124969482422 60.00000762939453L228.0124969482422 60.00000762939453L299.0124969482422 60.00000762939453" stroke="#323232" stroke-width="2" fill="none" marker-end="url(#SvgjsMarker1016)"></path><rect id="SvgjsRect1018" width="27" height="16" x="214.5124969482422" y="52.00000762939453" fill="#ffffff"></rect><text id="SvgjsText1019" font-family="微软雅黑" text-anchor="middle" font-size="13px" width="27px" fill="#323232" font-weight="400" align="top" lineHeight="16px" anchor="middle" family="微软雅黑" size="13px" weight="400" font-style="" opacity="1" y="50.37500762939453" transform="rotate(0)"><tspan id="SvgjsTspan1020" dy="16" x="228.0124969482422"><tspan id="SvgjsTspan1021" style="text-decoration:;">Msg</tspan></tspan></text></g><g id="SvgjsG1022" transform="translate(299.0124969482422,25.00000762939453)"><path id="SvgjsPath1023" d="M 0 4Q 0 0 4 0L 155 0Q 159 0 159 4L 159 66Q 159 70 155 70L 4 70Q 0 70 0 66Z" stroke="rgba(50,50,50,1)" stroke-width="2" fill-opacity="1" fill="#ffffff"></path><g id="SvgjsG1024"><text id="SvgjsText1025" font-family="微软雅黑" text-anchor="middle" font-size="13px" width="139px" fill="#323232" font-weight="400" align="middle" lineHeight="125%" anchor="middle" family="微软雅黑" size="13px" weight="400" font-style="" opacity="1" y="17.375" transform="rotate(0)"><tspan id="SvgjsTspan1026" dy="16" x="79.5"><tspan id="SvgjsTspan1027" style="text-decoration:;">消息代理</tspan></tspan><tspan id="SvgjsTspan1028" dy="16" x="79.5"><tspan id="SvgjsTspan1029" style="text-decoration:;">Message Broker</tspan></tspan></text></g></g><g id="SvgjsG1030" transform="translate(619.0124969482422,25.00000762939453)"><path id="SvgjsPath1031" d="M 0 0L 132 0L 132 70L 0 70Z" stroke="rgba(50,50,50,1)" stroke-width="2" fill-opacity="1" fill="#ffffff"></path><g id="SvgjsG1032"><text id="SvgjsText1033" font-family="微软雅黑" text-anchor="middle" font-size="13px" width="112px" fill="#323232" font-weight="400" align="middle" lineHeight="125%" anchor="middle" family="微软雅黑" size="13px" weight="400" font-style="" opacity="1" y="25.375" transform="rotate(0)"><tspan id="SvgjsTspan1034" dy="16" x="66"><tspan id="SvgjsTspan1035" style="text-decoration:;">订阅者 Subscriber</tspan></tspan></text></g></g><g id="SvgjsG1036"><path id="SvgjsPath1037" d="M458.0124969482422 60.00000762939453L538.5124969482422 60.00000762939453L538.5124969482422 60.00000762939453L619.0124969482422 60.00000762939453" stroke="#323232" stroke-width="2" fill="none" marker-end="url(#SvgjsMarker1038)"></path><rect id="SvgjsRect1040" width="27" height="16" x="525.0124969482422" y="52.00000762939453" fill="#ffffff"></rect><text id="SvgjsText1041" font-family="微软雅黑" text-anchor="middle" font-size="13px" width="27px" fill="#323232" font-weight="400" align="top" lineHeight="16px" anchor="middle" family="微软雅黑" size="13px" weight="400" font-style="" opacity="1" y="50.37500762939453" transform="rotate(0)"><tspan id="SvgjsTspan1042" dy="16" x="538.5124969482422"><tspan id="SvgjsTspan1043" style="text-decoration:;">Msg</tspan></tspan></text></g><g id="SvgjsG1044"><path id="SvgjsPath1045" d="M619.0124969482422 76L538.5124969482422 76L538.5124969482422 76L458.0124969482422 76" stroke-dasharray="3,3" stroke="#323232" stroke-width="2" fill="none" marker-end="url(#SvgjsMarker1046)"></path></g><g id="SvgjsG1048"><path id="SvgjsPath1049" d="M299.0124969482422 77L227.5124969482422 77L227.5124969482422 77L156.0124969482422 77" stroke-dasharray="3,3" stroke="#323232" stroke-width="2" fill="none" marker-end="url(#SvgjsMarker1050)"></path></g></svg>